PathFileType	4	(X/Y/Z)	Patient4_TMGait_0pt5_01_left_07.trc.trc
DataRate	CameraRate	NumFrames	NumMarkers	Units	OrigDataRate	OrigDataStartFrame	OrigNumFrames
73.684210526316	73.684210526316	5	33	mm	73.684210526316	106	       141
Frame#	Time	L.ASIS			Sacral			L.Shoulder			Chest			R.Shoulder			Neck			R.ASIS			R.Thigh.Superior			R.Thigh.Lateral			R.Thigh.Inferior			R.Patella			L.Thigh.Superior			L.Thigh.Lateral			L.Thigh.Inferior			L.Patella			L.Shank.Superior			L.Shank.Lateral			L.Shank.Inferior			R.Shank.Superior			R.Shank.Lateral			R.Shank.Inferior			R.Heel			R.Midfoot.Superior			R.Midfoot.Lateral			R.Toe			L.Heel			L.Midfoot.Lateral			L.Midfoot.Superior			L.Toe			L.Elbow			L.Wrist			R.Elbow			R.Wrist			
		X1	Y1	Z1	X2	Y2	Z2	X3	Y3	Z3	X4	Y4	Z4	X5	Y5	Z5	X6	Y6	Z6	X7	Y7	Z7	X8	Y8	Z8	X9	Y9	Z9	X10	Y10	Z10	X11	Y11	Z11	X12	Y12	Z12	X13	Y13	Z13	X14	Y14	Z14	X15	Y15	Z15	X16	Y16	Z16	X17	Y17	Z17	X18	Y18	Z18	X19	Y19	Z19	X20	Y20	Z20	X21	Y21	Z21	X22	Y22	Z22	X23	Y23	Z23	X24	Y24	Z24	X25	Y25	Z25	X26	Y26	Z26	X27	Y27	Z27	X28	Y28	Z28	X29	Y29	Z29	X30	Y30	Z30	X31	Y31	Z31	X32	Y32	Z32	X33	Y33	Z33	

106	10.835000000000	707.910761722819	972.804084961542	358.044076644305	513.811516614104	1013.466869513012	539.785333175853	679.386363388983	1455.779378247093	376.726512487075	798.148271610275	1364.921983857523	515.219479475250	740.917710128939	1424.441504198268	705.057083758053	705.801574296893	1500.836760214550	530.193035132718	751.003512910072	944.918046370997	628.626885551943	776.766659523353	741.685247645087	596.320838570883	694.377849229750	635.603569474324	660.097331281025	764.401443105109	580.669637081008	576.337765431670	758.852545732089	490.791421557197	581.821326640094	786.407809109437	786.450885758055	371.120586182110	730.100830719920	660.159631457064	298.225283625176	836.838374146891	597.494163079299	347.919873512143	857.859553220058	521.261107016767	338.324782307826	823.029353593135	447.290061365096	333.603388442070	718.060412221789	342.144410167604	292.620911466756	777.334447150383	223.086679248813	342.305844595917	724.643040350412	404.409188667385	586.296440301963	646.448487745315	304.581852425236	645.415869108240	680.806019913669	208.901912991898	579.158033594361	532.550580970232	50.033039132261	548.432059015444	709.054650798166	98.525186366330	576.643022052758	620.155886556485	37.811749909001	616.815464555341	827.437752424636	38.133068278625	593.556569783610	650.070083718158	67.670485375232	389.745499846801	715.238399265267	62.326057446241	302.897211473354	802.193652527116	122.711528803237	317.895656663829	923.164585895131	68.607418764209	278.089648343925	562.191526221655	1133.745044669925	235.090307808213	673.366532839874	895.705481544019	213.834644027581	805.587742554185	1081.574985535891	804.531599986633	1039.721879575385	987.647473781003	755.435331723991	
107	10.848571428571	706.457717932188	972.732261789000	357.309646234816	512.623299912503	1013.097200551899	539.375283721038	678.303291168679	1455.920806126177	377.343437789783	797.093809127481	1364.417295214513	515.381499926419	740.074593845844	1423.203553853748	705.506306580930	704.880327556616	1500.382852340102	531.033269806460	749.611426314487	944.326099247778	627.969633115606	774.709298591424	740.926804026072	595.798975820080	691.609468475262	635.037968510337	659.427751473787	761.437991693089	579.796477779935	575.854926951567	755.271585684610	489.855148744983	581.180259456196	783.597979414943	785.371169927420	370.502750816909	726.754340686967	659.385368469519	297.408063805965	832.823807882407	596.350492032645	348.239862194786	854.954087763160	522.382304487610	338.908719289084	824.120440535271	448.931914546849	333.030994767543	726.311499012552	337.958853022563	290.027205084489	792.482484913535	222.190236793811	339.384383011097	720.452297142064	403.604409438793	585.627826871130	641.602277491733	304.362113477080	644.937243487738	675.066876354199	208.402248062737	578.659391715652	525.761731976056	50.046080482684	548.281172147065	702.254219355425	98.453717342301	576.504501147235	613.311520606202	37.856614530945	616.696326230863	820.605619042534	38.048402947248	593.617080160373	674.513057849159	58.932351406130	384.274334366161	741.106981151576	57.886889436155	298.192406861134	824.237641385590	123.184447293801	314.532879769242	948.777269161105	76.232474704421	276.044025237716	558.942630180315	1135.296797120029	234.517744259569	668.088150462783	896.364038668818	212.603503787407	807.922762710443	1080.404976618615	802.705030785064	1042.379990034359	988.238414447423	751.761498664411	
108	10.862142857143	705.068502648712	972.584310550671	356.479729118037	511.438125776272	1012.682246776553	538.764503168873	677.292310541300	1455.920257086729	377.678556739572	796.023483242189	1363.876768264324	515.396423469461	739.067742580946	1422.027917417021	705.731018325895	703.926059518892	1499.880553253797	531.569504860006	748.191525589090	943.627980830930	627.233239800745	772.536538963379	740.040473612319	595.147319022684	688.671481670430	634.400585646533	658.570476221621	758.235042903168	578.832263092429	575.140092456904	751.443955178190	488.857669957168	580.273618850459	780.794045543890	784.147480564304	369.783124059946	723.315365027743	658.507106746525	296.524950834171	828.810755729721	595.079152723228	348.393576488091	851.952171331059	523.323222196780	339.524717402711	824.904922493873	450.617698459825	332.546235240670	734.285973156469	334.487243878173	287.511625475338	806.759949131404	222.262227816073	336.750004373800	716.084533105627	402.742643473731	584.744837978757	636.672152324265	304.062162409374	644.324291328731	669.226470924907	207.837289276889	578.010319420686	518.940466217119	49.923927824872	548.088525832773	695.382261989142	98.346626094760	576.285679589902	606.440618440449	37.870764995126	616.543899160149	813.751907996461	37.990406260217	593.671021465374	697.832481750777	52.283004631986	379.097868769784	765.834691088258	55.057836879619	293.973247315709	845.158650628043	124.699316535439	311.672233639775	972.763006226411	84.364186115266	274.969733900888	555.931342642275	1136.619908632564	233.776379371601	662.890149643660	896.736419823812	211.285376549450	809.597398070403	1079.239096855397	800.789126917722	1044.207360978544	988.292266010518	748.278522827422	
109	10.875714285714	703.727651909966	972.377409844405	355.558109045293	510.247507355146	1012.240038705298	537.970978676554	676.332915197347	1455.783742774198	377.722562575795	794.941847209277	1363.310918726265	515.240796976491	737.939242305872	1420.941971887518	705.715640460625	702.941559508231	1499.344079691508	531.786488566551	746.758645513707	942.842424128512	626.412202045182	770.210837555913	739.048204998336	594.301551013501	685.579522329063	633.715512586809	657.536133191126	754.767333072633	577.798584004978	574.175737359396	747.349168653552	487.818657929133	579.118480816181	778.103584917805	782.906621292539	368.950585302541	719.950896203921	657.597909069257	295.588429084299	825.008596871691	593.809514829820	348.322088119003	849.054104579769	524.160960248785	340.085711209944	825.496710213589	452.334441965714	332.110590869719	741.852398077380	331.755383652317	285.163994114231	819.965485615063	223.171455318539	334.447848021720	711.521109989966	401.843322218203	583.670531369743	631.640141192065	303.699802388614	643.603016403842	663.275211180045	207.226819402304	577.235630435988	512.088260720636	49.682027182896	547.866281502988	688.443600790591	98.209362623852	575.999429556178	599.546805902517	37.855886583092	616.367874157790	806.878964767199	37.957646731713	593.717203306570	719.556735115552	47.630616418755	374.430280271989	788.921830429746	53.644557123673	290.383804574937	864.621375863927	127.014839502178	309.347492022071	994.787600345033	92.579155550859	274.772270779623	553.158023530513	1137.683983934304	232.902259808409	657.795986833972	896.805117761486	209.859572687456	810.580993802069	1078.092559385498	798.829265713346	1045.181981509521	987.813436003695	745.030673961375	
110	10.889285714286	702.425348494189	972.121129358590	354.545467703827	509.048414638711	1011.778588513145	537.011445631257	675.397583800736	1455.519555294602	377.472916342440	793.848250745607	1362.726729439061	514.892530989197	736.727148142084	1419.959895293686	705.449049286397	701.924772739954	1498.782651506123	531.678956325373	745.330064871983	941.990494552874	625.499761536503	767.717978058126	737.975644323913	593.215414817041	682.363568914767	633.005855057829	656.346004537641	751.036932128770	576.716899602043	572.966312848120	742.991752022176	486.757177713921	577.749447061219	775.633041028316	781.760562824678	368.004135519203	716.833556990250	656.714136581692	294.618480235245	821.607134260273	592.647017679721	348.006513838556	846.446429687866	524.952379881642	340.521665240904	826.003702718575	454.038486402006	331.696640072396	748.871792511286	329.728807215265	283.068557878723	831.903207122738	224.713537828650	332.512315904201	706.760687963592	400.923842101035	582.439293755909	626.499278674372	303.294339886739	642.803699165654	657.213322080808	206.590390604128	576.366975454650	505.208733993351	49.344022909341	547.627264221681	681.447136561556	98.049306958098	575.662782043846	592.634363119381	37.815358870625	616.179290592283	799.989554593257	37.947487642824	593.754818757989	739.230531308493	44.765498667763	370.452843711708	809.878667019164	53.361191084830	287.527818323473	882.295229143275	129.819124637687	307.565786221146	1014.533016306117	100.408403478606	275.304199437775	550.621209345955	1138.467073784805	231.918898990319	652.849951097265	896.570448184626	208.313393415226	810.855729627760	1076.972870163981	796.873081864647	1045.291531844271	986.802030851777	742.061455573408	
